{"title":"Cuffs S01E06 x264 RB58.mp4","uid":12890010,"size":656267791,"categoryP":"video","categoryS":"tv_shows","magnet":"?xt=urn:btih:667c8a254de2dc093e6ef4989b0a0ea5cdf952b6&amp;dn=Cuffs+S01E06+x264+RB58.mp4&amp;tr=udp%3A%2F%2Ftracker.leechers-paradise.org%3A6969&amp;tr=udp%3A%2F%2Fzer0day.ch%3A1337&amp;tr=udp%3A%2F%2Fopen.demonii.com%3A1337&amp;tr=udp%3A%2F%2Ftracker.coppersurfer.tk%3A6969&amp;tr=udp%3A%2F%2Fexodus.desync.com%3A6969","seeders":1,"leechers":0,"uploader":"RedBaron58","files":1,"time":1449101386,"description":"Cuffs S01E06 x264 mp4\r\n \nhttp://www.imdb.com/title/tt4568288/\r\n\r\nTrailer:\r\n\r\n\r\nPlease be patient My intial upload speed is limited.\r\nThank you for your kind comments and feedback on my other torrents, your feedback is welcome.\r\n\r\n\r\nAbout the Episode:\r\nFelix and Carl suspect a Tug Master at the local harbour may be part of a drug-smuggling ring, \r\nbut Carl's personal life threatens to collapse the operation. \r\nAs Jo's final sergeant's exam looms, she must confront her life decisions while working on an \r\ninternet dating scam, and Lino meets a potential love match - but Donna cannot stand her. \r\nElsewhere, Jake witnesses a darker side to his mentor when Ryan loses his temper after \r\nrevelations about his son.\r\n \r\nstarring Ashley Walters and Jacob Ifan\r\n\r\n\r\nI hope you enjoy.\r\n\r\n\r\nTechnical:\r\n\r\nGeneral\r\nComplete name                            : G:Cuffs S01E06 x264 RB58.mp4\r\nFormat                                   : MPEG-4\r\nFormat profile                           : Base Media\r\nCodec ID                                 : isom\r\nFile size                                : 626 MiB\r\nDuration                                 : 57mn 34s\r\nOverall bit rate                         : 1 520 Kbps\r\nWriting application                      : Lavf54.63.104\r\n\r\nVideo\r\nID                                       : 1\r\nFormat                                   : AVC\r\nFormat/Info                              : Advanced Video Codec\r\nFormat profile                           :   \r\nFormat settings, CABAC                   : Yes\r\nFormat settings, ReFrames                : 4 frames\r\nCodec ID                                 : avc1\r\nCodec ID/Info                            : Advanced Video Coding\r\nDuration                                 : 57mn 34s\r\nBit rate                                 : 1 400 Kbps\r\nWidth                                    : 832 pixels\r\nHeight                                   : 468 pixels\r\nDisplay aspect ratio                     : 16:9\r\nFrame rate mode                          : Constant\r\nFrame rate                               : 25.000 fps\r\nColor space                              : YUV\r\nChroma subsampling                       : 4:2:0\r\nBit depth                                : 8 bits\r\nScan type                                : Progressive\r\nBits/(Pixel*Frame)                       : 0.144\r\nStream size                              : 576 MiB (92%)\r\nWriting library                          : x264 core 123 r2189 35cf912\r\nEncoding settings                        : cabac=1 / ref=3 / deblock=1:0:0\r\n\r\nAudio\r\nID                                       : 2\r\nFormat                                   : AAC\r\nFormat/Info                              : Advanced Audio Codec\r\nFormat profile                           : LC\r\nCodec ID                                 : 40\r\nDuration                                 : 57mn 34s\r\nBit rate mode                            : Constant\r\nBit rate                                 : 112 Kbps\r\nChannel(s)                               : 2 channels\r\nChannel positions                        : Front: L R\r\nSampling rate                            : 48.0 KHz\r\nCompression mode                         : Lossy\r\nStream size                              : 46.2 MiB (7%)","torrent":{"xt":"urn:btih:667c8a254de2dc093e6ef4989b0a0ea5cdf952b6","amp;dn":"Cuffs+S01E06+x264+RB58.mp4","amp;tr":["udp%3A%2F%2Ftracker.leechers-paradise.org%3A6969","udp%3A%2F%2Fzer0day.ch%3A1337","udp%3A%2F%2Fopen.demonii.com%3A1337","udp%3A%2F%2Ftracker.coppersurfer.tk%3A6969","udp%3A%2F%2Fexodus.desync.com%3A6969"],"infoHash":"667c8a254de2dc093e6ef4989b0a0ea5cdf952b6","infoHashBuffer":{"type":"Buffer","data":[102,124,138,37,77,226,220,9,62,110,244,152,155,10,14,165,205,249,82,182]},"announce":[],"urlList":[]}}